<svg width="106" height="194" viewBox="0 0 106 194" fill="none" xmlns="http://www.w3.org/2000/svg">
<path d="M21.6153 111.5C5.49974 90.5 -2.45423 57.3596 10.2347 32.3307C17.4999 18 33.7826 30.1217 40.0833 79.4412C42.1836 97.9088 45.1239 139.841 40.0833 159.83C33.7826 184.815 26.6121 188.509 21.6153 190.247C16.6185 191.985 15.7488 176.559 25.5261 142.231C33.348 114.769 64.8517 54.021 79.6258 27.08C90.9117 6.49976 87.4474 4.22351 83.9711 3.18063C79.6258 1.87703 55.0747 9.35453 55.0747 29.6871C55.0747 55 145.28 63.3568 76.1496 122.46C68.5 129 55.2504 137.364 37 142.231" stroke="black" stroke-width="6" stroke-linecap="round"/>
</svg>
