<svg width="840" height="129" viewBox="0 0 840 129" fill="none" xmlns="http://www.w3.org/2000/svg">
<path d="M0 0H107.501L152 40.5L107.501 81H0V0Z" fill="#EAE5F4"/>
<path d="M115 0H222.501L267 40.5L222.501 81H115L159.499 40.5L115 0Z" fill="#E0D9EF"/>
<path d="M229 0H336.501L381 40.5L336.501 81H229L273.499 40.5L229 0Z" fill="#D5CCEA"/>
<path d="M344 0H451.501L496 40.5L451.501 81H344L388.499 40.5L344 0Z" fill="#CBBFE5"/>
<path d="M459 0H566.501L611 40.5L566.501 81H459L503.499 40.5L459 0Z" fill="#C1B3DF"/>
<path d="M573 0H680.501L725 40.5L680.501 81H573L617.499 40.5L573 0Z" fill="#B6A6DA"/>
<path d="M688 0H795.501L840 40.5L795.501 81H688L732.499 40.5L688 0Z" fill="#AC99D5"/>
<path d="M14.926 92.228V102H12.966V92.228H14.926ZM16.3585 98.094C16.3585 97.31 16.5125 96.6147 16.8205 96.008C17.1378 95.4013 17.5672 94.9347 18.1085 94.608C18.6498 94.2813 19.2518 94.118 19.9145 94.118C20.4185 94.118 20.8992 94.23 21.3565 94.454C21.8138 94.6687 22.1778 94.958 22.4485 95.322V91.64H24.4365V102H22.4485V100.852C22.2058 101.235 21.8652 101.543 21.4265 101.776C20.9878 102.009 20.4792 102.126 19.9005 102.126C19.2472 102.126 18.6498 101.958 18.1085 101.622C17.5672 101.286 17.1378 100.815 16.8205 100.208C16.5125 99.592 16.3585 98.8873 16.3585 98.094ZM22.4625 98.122C22.4625 97.646 22.3692 97.24 22.1825 96.904C21.9958 96.5587 21.7438 96.2973 21.4265 96.12C21.1092 95.9333 20.7685 95.84 20.4045 95.84C20.0405 95.84 19.7045 95.9287 19.3965 96.106C19.0885 96.2833 18.8365 96.5447 18.6405 96.89C18.4538 97.226 18.3605 97.6273 18.3605 98.094C18.3605 98.5607 18.4538 98.9713 18.6405 99.326C18.8365 99.6713 19.0885 99.9373 19.3965 100.124C19.7138 100.311 20.0498 100.404 20.4045 100.404C20.7685 100.404 21.1092 100.315 21.4265 100.138C21.7438 99.9513 21.9958 99.69 22.1825 99.354C22.3692 99.0087 22.4625 98.598 22.4625 98.122ZM33.5608 97.954C33.5608 98.234 33.5421 98.486 33.5048 98.71H27.8348C27.8814 99.27 28.0774 99.7087 28.4228 100.026C28.7681 100.343 29.1928 100.502 29.6968 100.502C30.4248 100.502 30.9428 100.189 31.2508 99.564H33.3648C33.1408 100.311 32.7114 100.927 32.0768 101.412C31.4421 101.888 30.6628 102.126 29.7388 102.126C28.9921 102.126 28.3201 101.963 27.7228 101.636C27.1348 101.3 26.6728 100.829 26.3368 100.222C26.0101 99.6153 25.8468 98.9153 25.8468 98.122C25.8468 97.3193 26.0101 96.6147 26.3368 96.008C26.6634 95.4013 27.1208 94.9347 27.7088 94.608C28.2968 94.2813 28.9734 94.118 29.7388 94.118C30.4761 94.118 31.1341 94.2767 31.7128 94.594C32.3008 94.9113 32.7534 95.364 33.0708 95.952C33.3974 96.5307 33.5608 97.198 33.5608 97.954ZM31.5308 97.394C31.5214 96.89 31.3394 96.4887 30.9848 96.19C30.6301 95.882 30.1961 95.728 29.6828 95.728C29.1974 95.728 28.7868 95.8773 28.4508 96.176C28.1241 96.4653 27.9234 96.8713 27.8488 97.394H31.5308ZM39.2894 94.132C40.2134 94.132 40.9601 94.426 41.5294 95.014C42.0987 95.5927 42.3834 96.4047 42.3834 97.45V102H40.4234V97.716C40.4234 97.1 40.2694 96.6287 39.9614 96.302C39.6534 95.966 39.2334 95.798 38.7014 95.798C38.1601 95.798 37.7307 95.966 37.4134 96.302C37.1054 96.6287 36.9514 97.1 36.9514 97.716V102H34.9914V94.244H36.9514V95.21C37.2127 94.874 37.5441 94.6127 37.9454 94.426C38.3561 94.23 38.8041 94.132 39.2894 94.132ZM46.5293 95.854V99.606C46.5293 99.8673 46.5899 100.059 46.7113 100.18C46.8419 100.292 47.0566 100.348 47.3553 100.348H48.2653V102H47.0333C45.3813 102 44.5553 101.197 44.5553 99.592V95.854H43.6313V94.244H44.5553V92.326H46.5293V94.244H48.2653V95.854H46.5293ZM50.669 93.32C50.3237 93.32 50.0343 93.2127 49.801 92.998C49.577 92.774 49.465 92.4987 49.465 92.172C49.465 91.8453 49.577 91.5747 49.801 91.36C50.0343 91.136 50.3237 91.024 50.669 91.024C51.0143 91.024 51.299 91.136 51.523 91.36C51.7563 91.5747 51.873 91.8453 51.873 92.172C51.873 92.4987 51.7563 92.774 51.523 92.998C51.299 93.2127 51.0143 93.32 50.669 93.32ZM51.635 94.244V102H49.675V94.244H51.635ZM57.1275 95.854H55.7695V102H53.7815V95.854H52.8995V94.244H53.7815V93.852C53.7815 92.9 54.0521 92.2 54.5935 91.752C55.1348 91.304 55.9515 91.094 57.0435 91.122V92.774C56.5675 92.7647 56.2361 92.844 56.0495 93.012C55.8628 93.18 55.7695 93.4833 55.7695 93.922V94.244H57.1275V95.854ZM65.8176 94.244L61.0156 105.668H58.9296L60.6096 101.804L57.5016 94.244H59.6996L61.7016 99.662L63.7316 94.244H65.8176ZM14.926 116.364C15.178 116.009 15.5233 115.715 15.962 115.482C16.41 115.239 16.9187 115.118 17.488 115.118C18.1507 115.118 18.748 115.281 19.28 115.608C19.8213 115.935 20.246 116.401 20.554 117.008C20.8713 117.605 21.03 118.301 21.03 119.094C21.03 119.887 20.8713 120.592 20.554 121.208C20.246 121.815 19.8213 122.286 19.28 122.622C18.748 122.958 18.1507 123.126 17.488 123.126C16.9187 123.126 16.4147 123.009 15.976 122.776C15.5467 122.543 15.1967 122.249 14.926 121.894V126.696H12.966V115.244H14.926V116.364ZM19.028 119.094C19.028 118.627 18.93 118.226 18.734 117.89C18.5473 117.545 18.2953 117.283 17.978 117.106C17.67 116.929 17.334 116.84 16.97 116.84C16.6153 116.84 16.2793 116.933 15.962 117.12C15.654 117.297 15.402 117.559 15.206 117.904C15.0193 118.249 14.926 118.655 14.926 119.122C14.926 119.589 15.0193 119.995 15.206 120.34C15.402 120.685 15.654 120.951 15.962 121.138C16.2793 121.315 16.6153 121.404 16.97 121.404C17.334 121.404 17.67 121.311 17.978 121.124C18.2953 120.937 18.5473 120.671 18.734 120.326C18.93 119.981 19.028 119.57 19.028 119.094ZM24.4143 116.448C24.6663 116.037 24.9929 115.715 25.3943 115.482C25.8049 115.249 26.2716 115.132 26.7943 115.132V117.19H26.2763C25.6603 117.19 25.1936 117.335 24.8763 117.624C24.5683 117.913 24.4143 118.417 24.4143 119.136V123H22.4543V115.244H24.4143V116.448ZM31.5584 123.126C30.8118 123.126 30.1398 122.963 29.5424 122.636C28.9451 122.3 28.4738 121.829 28.1284 121.222C27.7924 120.615 27.6244 119.915 27.6244 119.122C27.6244 118.329 27.7971 117.629 28.1424 117.022C28.4971 116.415 28.9778 115.949 29.5844 115.622C30.1911 115.286 30.8678 115.118 31.6144 115.118C32.3611 115.118 33.0378 115.286 33.6444 115.622C34.2511 115.949 34.7271 116.415 35.0724 117.022C35.4271 117.629 35.6044 118.329 35.6044 119.122C35.6044 119.915 35.4224 120.615 35.0584 121.222C34.7038 121.829 34.2184 122.3 33.6024 122.636C32.9958 122.963 32.3144 123.126 31.5584 123.126ZM31.5584 121.418C31.9131 121.418 32.2444 121.334 32.5524 121.166C32.8698 120.989 33.1218 120.727 33.3084 120.382C33.4951 120.037 33.5884 119.617 33.5884 119.122C33.5884 118.385 33.3924 117.82 33.0004 117.428C32.6178 117.027 32.1464 116.826 31.5864 116.826C31.0264 116.826 30.5551 117.027 30.1724 117.428C29.7991 117.82 29.6124 118.385 29.6124 119.122C29.6124 119.859 29.7944 120.429 30.1584 120.83C30.5318 121.222 30.9984 121.418 31.5584 121.418ZM39.0022 116.378C39.2542 116.005 39.5995 115.701 40.0382 115.468C40.4862 115.235 40.9948 115.118 41.5642 115.118C42.2268 115.118 42.8242 115.281 43.3562 115.608C43.8975 115.935 44.3222 116.401 44.6302 117.008C44.9475 117.605 45.1062 118.301 45.1062 119.094C45.1062 119.887 44.9475 120.592 44.6302 121.208C44.3222 121.815 43.8975 122.286 43.3562 122.622C42.8242 122.958 42.2268 123.126 41.5642 123.126C40.9855 123.126 40.4768 123.014 40.0382 122.79C39.6088 122.557 39.2635 122.258 39.0022 121.894V123H37.0422V112.64H39.0022V116.378ZM43.1042 119.094C43.1042 118.627 43.0062 118.226 42.8102 117.89C42.6235 117.545 42.3715 117.283 42.0542 117.106C41.7462 116.929 41.4102 116.84 41.0462 116.84C40.6915 116.84 40.3555 116.933 40.0382 117.12C39.7302 117.297 39.4782 117.559 39.2822 117.904C39.0955 118.249 39.0022 118.655 39.0022 119.122C39.0022 119.589 39.0955 119.995 39.2822 120.34C39.4782 120.685 39.7302 120.951 40.0382 121.138C40.3555 121.315 40.6915 121.404 41.0462 121.404C41.4102 121.404 41.7462 121.311 42.0542 121.124C42.3715 120.937 42.6235 120.671 42.8102 120.326C43.0062 119.981 43.1042 119.57 43.1042 119.094ZM48.4905 112.64V123H46.5305V112.64H48.4905ZM57.6369 118.954C57.6369 119.234 57.6183 119.486 57.5809 119.71H51.9109C51.9576 120.27 52.1536 120.709 52.4989 121.026C52.8443 121.343 53.2689 121.502 53.7729 121.502C54.5009 121.502 55.0189 121.189 55.3269 120.564H57.4409C57.2169 121.311 56.7876 121.927 56.1529 122.412C55.5183 122.888 54.7389 123.126 53.8149 123.126C53.0683 123.126 52.3963 122.963 51.7989 122.636C51.2109 122.3 50.7489 121.829 50.4129 121.222C50.0863 120.615 49.9229 119.915 49.9229 119.122C49.9229 118.319 50.0863 117.615 50.4129 117.008C50.7396 116.401 51.1969 115.935 51.7849 115.608C52.3729 115.281 53.0496 115.118 53.8149 115.118C54.5523 115.118 55.2103 115.277 55.7889 115.594C56.3769 115.911 56.8296 116.364 57.1469 116.952C57.4736 117.531 57.6369 118.198 57.6369 118.954ZM55.6069 118.394C55.5976 117.89 55.4156 117.489 55.0609 117.19C54.7063 116.882 54.2723 116.728 53.7589 116.728C53.2736 116.728 52.8629 116.877 52.5269 117.176C52.2003 117.465 51.9996 117.871 51.9249 118.394H55.6069ZM68.6996 115.132C69.6516 115.132 70.4169 115.426 70.9956 116.014C71.5836 116.593 71.8776 117.405 71.8776 118.45V123H69.9176V118.716C69.9176 118.109 69.7636 117.647 69.4556 117.33C69.1476 117.003 68.7276 116.84 68.1956 116.84C67.6636 116.84 67.2389 117.003 66.9216 117.33C66.6136 117.647 66.4596 118.109 66.4596 118.716V123H64.4996V118.716C64.4996 118.109 64.3456 117.647 64.0376 117.33C63.7296 117.003 63.3096 116.84 62.7776 116.84C62.2362 116.84 61.8069 117.003 61.4896 117.33C61.1816 117.647 61.0276 118.109 61.0276 118.716V123H59.0676V115.244H61.0276V116.182C61.2796 115.855 61.6016 115.599 61.9936 115.412C62.3949 115.225 62.8336 115.132 63.3096 115.132C63.9162 115.132 64.4576 115.263 64.9336 115.524C65.4096 115.776 65.7782 116.14 66.0396 116.616C66.2916 116.168 66.6556 115.809 67.1316 115.538C67.6169 115.267 68.1396 115.132 68.6996 115.132Z" fill="#4B5563"/>
<path d="M135.092 94.252C135.092 94.7747 134.966 95.2647 134.714 95.722C134.471 96.1793 134.084 96.548 133.552 96.828C133.029 97.108 132.367 97.248 131.564 97.248H129.926V101H127.966V91.228H131.564C132.32 91.228 132.964 91.3587 133.496 91.62C134.028 91.8813 134.425 92.2407 134.686 92.698C134.957 93.1553 135.092 93.6733 135.092 94.252ZM131.48 95.666C132.021 95.666 132.423 95.5447 132.684 95.302C132.945 95.05 133.076 94.7 133.076 94.252C133.076 93.3 132.544 92.824 131.48 92.824H129.926V95.666H131.48ZM138.444 94.448C138.696 94.0373 139.022 93.7153 139.424 93.482C139.834 93.2487 140.301 93.132 140.824 93.132V95.19H140.306C139.69 95.19 139.223 95.3347 138.906 95.624C138.598 95.9133 138.444 96.4173 138.444 97.136V101H136.484V93.244H138.444V94.448ZM145.588 101.126C144.841 101.126 144.169 100.963 143.572 100.636C142.974 100.3 142.503 99.8287 142.158 99.222C141.822 98.6153 141.654 97.9153 141.654 97.122C141.654 96.3287 141.826 95.6287 142.172 95.022C142.526 94.4153 143.007 93.9487 143.614 93.622C144.22 93.286 144.897 93.118 145.644 93.118C146.39 93.118 147.067 93.286 147.674 93.622C148.28 93.9487 148.756 94.4153 149.102 95.022C149.456 95.6287 149.634 96.3287 149.634 97.122C149.634 97.9153 149.452 98.6153 149.088 99.222C148.733 99.8287 148.248 100.3 147.632 100.636C147.025 100.963 146.344 101.126 145.588 101.126ZM145.588 99.418C145.942 99.418 146.274 99.334 146.582 99.166C146.899 98.9887 147.151 98.7273 147.338 98.382C147.524 98.0367 147.618 97.6167 147.618 97.122C147.618 96.3847 147.422 95.82 147.03 95.428C146.647 95.0267 146.176 94.826 145.616 94.826C145.056 94.826 144.584 95.0267 144.202 95.428C143.828 95.82 143.642 96.3847 143.642 97.122C143.642 97.8593 143.824 98.4287 144.188 98.83C144.561 99.222 145.028 99.418 145.588 99.418ZM153.031 94.364C153.283 94.0093 153.629 93.7153 154.067 93.482C154.515 93.2393 155.024 93.118 155.593 93.118C156.256 93.118 156.853 93.2813 157.385 93.608C157.927 93.9347 158.351 94.4013 158.659 95.008C158.977 95.6053 159.135 96.3007 159.135 97.094C159.135 97.8873 158.977 98.592 158.659 99.208C158.351 99.8147 157.927 100.286 157.385 100.622C156.853 100.958 156.256 101.126 155.593 101.126C155.024 101.126 154.52 101.009 154.081 100.776C153.652 100.543 153.302 100.249 153.031 99.894V104.696H151.071V93.244H153.031V94.364ZM157.133 97.094C157.133 96.6273 157.035 96.226 156.839 95.89C156.653 95.5447 156.401 95.2833 156.083 95.106C155.775 94.9287 155.439 94.84 155.075 94.84C154.721 94.84 154.385 94.9333 154.067 95.12C153.759 95.2973 153.507 95.5587 153.311 95.904C153.125 96.2493 153.031 96.6553 153.031 97.122C153.031 97.5887 153.125 97.9947 153.311 98.34C153.507 98.6853 153.759 98.9513 154.067 99.138C154.385 99.3153 154.721 99.404 155.075 99.404C155.439 99.404 155.775 99.3107 156.083 99.124C156.401 98.9373 156.653 98.6713 156.839 98.326C157.035 97.9807 157.133 97.57 157.133 97.094ZM164.004 101.126C163.257 101.126 162.585 100.963 161.988 100.636C161.39 100.3 160.919 99.8287 160.574 99.222C160.238 98.6153 160.07 97.9153 160.07 97.122C160.07 96.3287 160.242 95.6287 160.588 95.022C160.942 94.4153 161.423 93.9487 162.03 93.622C162.636 93.286 163.313 93.118 164.06 93.118C164.806 93.118 165.483 93.286 166.09 93.622C166.696 93.9487 167.172 94.4153 167.518 95.022C167.872 95.6287 168.05 96.3287 168.05 97.122C168.05 97.9153 167.868 98.6153 167.504 99.222C167.149 99.8287 166.664 100.3 166.048 100.636C165.441 100.963 164.76 101.126 164.004 101.126ZM164.004 99.418C164.358 99.418 164.69 99.334 164.998 99.166C165.315 98.9887 165.567 98.7273 165.754 98.382C165.94 98.0367 166.034 97.6167 166.034 97.122C166.034 96.3847 165.838 95.82 165.446 95.428C165.063 95.0267 164.592 94.826 164.032 94.826C163.472 94.826 163 95.0267 162.618 95.428C162.244 95.82 162.058 96.3847 162.058 97.122C162.058 97.8593 162.24 98.4287 162.604 98.83C162.977 99.222 163.444 99.418 164.004 99.418ZM172.455 101.126C171.821 101.126 171.251 101.014 170.747 100.79C170.243 100.557 169.842 100.244 169.543 99.852C169.254 99.46 169.095 99.026 169.067 98.55H171.041C171.079 98.8487 171.223 99.096 171.475 99.292C171.737 99.488 172.059 99.586 172.441 99.586C172.815 99.586 173.104 99.5113 173.309 99.362C173.524 99.2127 173.631 99.0213 173.631 98.788C173.631 98.536 173.501 98.3493 173.239 98.228C172.987 98.0973 172.581 97.9573 172.021 97.808C171.443 97.668 170.967 97.5233 170.593 97.374C170.229 97.2247 169.912 96.996 169.641 96.688C169.38 96.38 169.249 95.9647 169.249 95.442C169.249 95.0127 169.371 94.6207 169.613 94.266C169.865 93.9113 170.22 93.6313 170.677 93.426C171.144 93.2207 171.69 93.118 172.315 93.118C173.239 93.118 173.977 93.3513 174.527 93.818C175.078 94.2753 175.381 94.896 175.437 95.68H173.561C173.533 95.372 173.403 95.1293 173.169 94.952C172.945 94.7653 172.642 94.672 172.259 94.672C171.905 94.672 171.629 94.7373 171.433 94.868C171.247 94.9987 171.153 95.1807 171.153 95.414C171.153 95.6753 171.284 95.876 171.545 96.016C171.807 96.1467 172.213 96.282 172.763 96.422C173.323 96.562 173.785 96.7067 174.149 96.856C174.513 97.0053 174.826 97.2387 175.087 97.556C175.358 97.864 175.498 98.2747 175.507 98.788C175.507 99.236 175.381 99.6373 175.129 99.992C174.887 100.347 174.532 100.627 174.065 100.832C173.608 101.028 173.071 101.126 172.455 101.126ZM184.326 96.954C184.326 97.234 184.308 97.486 184.27 97.71H178.6C178.647 98.27 178.843 98.7087 179.188 99.026C179.534 99.3433 179.958 99.502 180.462 99.502C181.19 99.502 181.708 99.1893 182.016 98.564H184.13C183.906 99.3107 183.477 99.9267 182.842 100.412C182.208 100.888 181.428 101.126 180.504 101.126C179.758 101.126 179.086 100.963 178.488 100.636C177.9 100.3 177.438 99.8287 177.102 99.222C176.776 98.6153 176.612 97.9153 176.612 97.122C176.612 96.3193 176.776 95.6147 177.102 95.008C177.429 94.4013 177.886 93.9347 178.474 93.608C179.062 93.2813 179.739 93.118 180.504 93.118C181.242 93.118 181.9 93.2767 182.478 93.594C183.066 93.9113 183.519 94.364 183.836 94.952C184.163 95.5307 184.326 96.198 184.326 96.954ZM182.296 96.394C182.287 95.89 182.105 95.4887 181.75 95.19C181.396 94.882 180.962 94.728 180.448 94.728C179.963 94.728 179.552 94.8773 179.216 95.176C178.89 95.4653 178.689 95.8713 178.614 96.394H182.296ZM129.926 115.364C130.178 115.009 130.523 114.715 130.962 114.482C131.41 114.239 131.919 114.118 132.488 114.118C133.151 114.118 133.748 114.281 134.28 114.608C134.821 114.935 135.246 115.401 135.554 116.008C135.871 116.605 136.03 117.301 136.03 118.094C136.03 118.887 135.871 119.592 135.554 120.208C135.246 120.815 134.821 121.286 134.28 121.622C133.748 121.958 133.151 122.126 132.488 122.126C131.919 122.126 131.415 122.009 130.976 121.776C130.547 121.543 130.197 121.249 129.926 120.894V125.696H127.966V114.244H129.926V115.364ZM134.028 118.094C134.028 117.627 133.93 117.226 133.734 116.89C133.547 116.545 133.295 116.283 132.978 116.106C132.67 115.929 132.334 115.84 131.97 115.84C131.615 115.84 131.279 115.933 130.962 116.12C130.654 116.297 130.402 116.559 130.206 116.904C130.019 117.249 129.926 117.655 129.926 118.122C129.926 118.589 130.019 118.995 130.206 119.34C130.402 119.685 130.654 119.951 130.962 120.138C131.279 120.315 131.615 120.404 131.97 120.404C132.334 120.404 132.67 120.311 132.978 120.124C133.295 119.937 133.547 119.671 133.734 119.326C133.93 118.981 134.028 118.57 134.028 118.094ZM139.414 115.448C139.666 115.037 139.993 114.715 140.394 114.482C140.805 114.249 141.272 114.132 141.794 114.132V116.19H141.276C140.66 116.19 140.194 116.335 139.876 116.624C139.568 116.913 139.414 117.417 139.414 118.136V122H137.454V114.244H139.414V115.448ZM146.558 122.126C145.812 122.126 145.14 121.963 144.542 121.636C143.945 121.3 143.474 120.829 143.128 120.222C142.792 119.615 142.624 118.915 142.624 118.122C142.624 117.329 142.797 116.629 143.142 116.022C143.497 115.415 143.978 114.949 144.584 114.622C145.191 114.286 145.868 114.118 146.614 114.118C147.361 114.118 148.038 114.286 148.644 114.622C149.251 114.949 149.727 115.415 150.072 116.022C150.427 116.629 150.604 117.329 150.604 118.122C150.604 118.915 150.422 119.615 150.058 120.222C149.704 120.829 149.218 121.3 148.602 121.636C147.996 121.963 147.314 122.126 146.558 122.126ZM146.558 120.418C146.913 120.418 147.244 120.334 147.552 120.166C147.87 119.989 148.122 119.727 148.308 119.382C148.495 119.037 148.588 118.617 148.588 118.122C148.588 117.385 148.392 116.82 148 116.428C147.618 116.027 147.146 115.826 146.586 115.826C146.026 115.826 145.555 116.027 145.172 116.428C144.799 116.82 144.612 117.385 144.612 118.122C144.612 118.859 144.794 119.429 145.158 119.83C145.532 120.222 145.998 120.418 146.558 120.418ZM153.036 113.32C152.682 113.32 152.388 113.213 152.154 112.998C151.93 112.774 151.818 112.499 151.818 112.172C151.818 111.845 151.93 111.575 152.154 111.36C152.388 111.136 152.682 111.024 153.036 111.024C153.382 111.024 153.666 111.136 153.89 111.36C154.114 111.575 154.226 111.845 154.226 112.172C154.226 112.499 154.114 112.774 153.89 112.998C153.666 113.213 153.382 113.32 153.036 113.32ZM154.002 123.274C154.002 124.133 153.788 124.749 153.358 125.122C152.938 125.505 152.332 125.696 151.538 125.696H150.67V124.03H151.23C151.529 124.03 151.739 123.969 151.86 123.848C151.982 123.736 152.042 123.549 152.042 123.288V114.244H154.002V123.274ZM163.149 117.954C163.149 118.234 163.13 118.486 163.093 118.71H157.423C157.469 119.27 157.665 119.709 158.011 120.026C158.356 120.343 158.781 120.502 159.285 120.502C160.013 120.502 160.531 120.189 160.839 119.564H162.953C162.729 120.311 162.299 120.927 161.665 121.412C161.03 121.888 160.251 122.126 159.327 122.126C158.58 122.126 157.908 121.963 157.311 121.636C156.723 121.3 156.261 120.829 155.925 120.222C155.598 119.615 155.435 118.915 155.435 118.122C155.435 117.319 155.598 116.615 155.925 116.008C156.251 115.401 156.709 114.935 157.297 114.608C157.885 114.281 158.561 114.118 159.327 114.118C160.064 114.118 160.722 114.277 161.301 114.594C161.889 114.911 162.341 115.364 162.659 115.952C162.985 116.531 163.149 117.198 163.149 117.954ZM161.119 117.394C161.109 116.89 160.927 116.489 160.573 116.19C160.218 115.882 159.784 115.728 159.271 115.728C158.785 115.728 158.375 115.877 158.039 116.176C157.712 116.465 157.511 116.871 157.437 117.394H161.119ZM164.075 118.122C164.075 117.319 164.239 116.619 164.565 116.022C164.892 115.415 165.345 114.949 165.923 114.622C166.502 114.286 167.165 114.118 167.911 114.118C168.873 114.118 169.666 114.361 170.291 114.846C170.926 115.322 171.351 115.994 171.565 116.862H169.451C169.339 116.526 169.148 116.265 168.877 116.078C168.616 115.882 168.289 115.784 167.897 115.784C167.337 115.784 166.894 115.989 166.567 116.4C166.241 116.801 166.077 117.375 166.077 118.122C166.077 118.859 166.241 119.433 166.567 119.844C166.894 120.245 167.337 120.446 167.897 120.446C168.691 120.446 169.209 120.091 169.451 119.382H171.565C171.351 120.222 170.926 120.889 170.291 121.384C169.657 121.879 168.863 122.126 167.911 122.126C167.165 122.126 166.502 121.963 165.923 121.636C165.345 121.3 164.892 120.833 164.565 120.236C164.239 119.629 164.075 118.925 164.075 118.122ZM175.283 115.854V119.606C175.283 119.867 175.344 120.059 175.465 120.18C175.596 120.292 175.81 120.348 176.109 120.348H177.019V122H175.787C174.135 122 173.309 121.197 173.309 119.592V115.854H172.385V114.244H173.309V112.326H175.283V114.244H177.019V115.854H175.283Z" fill="#4B5563"/>
<path d="M250.072 92.228V102H248.112V97.842H243.926V102H241.966V92.228H243.926V96.246H248.112V92.228H250.072ZM259.211 97.954C259.211 98.234 259.192 98.486 259.155 98.71H253.485C253.532 99.27 253.728 99.7087 254.073 100.026C254.418 100.343 254.843 100.502 255.347 100.502C256.075 100.502 256.593 100.189 256.901 99.564H259.015C258.791 100.311 258.362 100.927 257.727 101.412C257.092 101.888 256.313 102.126 255.389 102.126C254.642 102.126 253.97 101.963 253.373 101.636C252.785 101.3 252.323 100.829 251.987 100.222C251.66 99.6153 251.497 98.9153 251.497 98.122C251.497 97.3193 251.66 96.6147 251.987 96.008C252.314 95.4013 252.771 94.9347 253.359 94.608C253.947 94.2813 254.624 94.118 255.389 94.118C256.126 94.118 256.784 94.2767 257.363 94.594C257.951 94.9113 258.404 95.364 258.721 95.952C259.048 96.5307 259.211 97.198 259.211 97.954ZM257.181 97.394C257.172 96.89 256.99 96.4887 256.635 96.19C256.28 95.882 255.846 95.728 255.333 95.728C254.848 95.728 254.437 95.8773 254.101 96.176C253.774 96.4653 253.574 96.8713 253.499 97.394H257.181ZM267.964 94.244V102H265.99V101.02C265.738 101.356 265.406 101.622 264.996 101.818C264.594 102.005 264.156 102.098 263.68 102.098C263.073 102.098 262.536 101.972 262.07 101.72C261.603 101.459 261.234 101.081 260.964 100.586C260.702 100.082 260.572 99.4847 260.572 98.794V94.244H262.532V98.514C262.532 99.13 262.686 99.606 262.994 99.942C263.302 100.269 263.722 100.432 264.254 100.432C264.795 100.432 265.22 100.269 265.528 99.942C265.836 99.606 265.99 99.13 265.99 98.514V94.244H267.964ZM271.858 95.448C272.11 95.0373 272.436 94.7153 272.838 94.482C273.248 94.2487 273.715 94.132 274.238 94.132V96.19H273.72C273.104 96.19 272.637 96.3347 272.32 96.624C272.012 96.9133 271.858 97.4173 271.858 98.136V102H269.898V94.244H271.858V95.448ZM276.552 93.32C276.206 93.32 275.917 93.2127 275.684 92.998C275.46 92.774 275.348 92.4987 275.348 92.172C275.348 91.8453 275.46 91.5747 275.684 91.36C275.917 91.136 276.206 91.024 276.552 91.024C276.897 91.024 277.182 91.136 277.406 91.36C277.639 91.5747 277.756 91.8453 277.756 92.172C277.756 92.4987 277.639 92.774 277.406 92.998C277.182 93.2127 276.897 93.32 276.552 93.32ZM277.518 94.244V102H275.558V94.244H277.518ZM282.422 102.126C281.788 102.126 281.218 102.014 280.714 101.79C280.21 101.557 279.809 101.244 279.51 100.852C279.221 100.46 279.062 100.026 279.034 99.55H281.008C281.046 99.8487 281.19 100.096 281.442 100.292C281.704 100.488 282.026 100.586 282.408 100.586C282.782 100.586 283.071 100.511 283.276 100.362C283.491 100.213 283.598 100.021 283.598 99.788C283.598 99.536 283.468 99.3493 283.206 99.228C282.954 99.0973 282.548 98.9573 281.988 98.808C281.41 98.668 280.934 98.5233 280.56 98.374C280.196 98.2247 279.879 97.996 279.608 97.688C279.347 97.38 279.216 96.9647 279.216 96.442C279.216 96.0127 279.338 95.6207 279.58 95.266C279.832 94.9113 280.187 94.6313 280.644 94.426C281.111 94.2207 281.657 94.118 282.282 94.118C283.206 94.118 283.944 94.3513 284.494 94.818C285.045 95.2753 285.348 95.896 285.404 96.68H283.528C283.5 96.372 283.37 96.1293 283.136 95.952C282.912 95.7653 282.609 95.672 282.226 95.672C281.872 95.672 281.596 95.7373 281.4 95.868C281.214 95.9987 281.12 96.1807 281.12 96.414C281.12 96.6753 281.251 96.876 281.512 97.016C281.774 97.1467 282.18 97.282 282.73 97.422C283.29 97.562 283.752 97.7067 284.116 97.856C284.48 98.0053 284.793 98.2387 285.054 98.556C285.325 98.864 285.465 99.2747 285.474 99.788C285.474 100.236 285.348 100.637 285.096 100.992C284.854 101.347 284.499 101.627 284.032 101.832C283.575 102.028 283.038 102.126 282.422 102.126ZM289.365 95.854V99.606C289.365 99.8673 289.426 100.059 289.547 100.18C289.678 100.292 289.893 100.348 290.191 100.348H291.101V102H289.869C288.217 102 287.391 101.197 287.391 99.592V95.854H286.467V94.244H287.391V92.326H289.365V94.244H291.101V95.854H289.365ZM293.505 93.32C293.16 93.32 292.87 93.2127 292.637 92.998C292.413 92.774 292.301 92.4987 292.301 92.172C292.301 91.8453 292.413 91.5747 292.637 91.36C292.87 91.136 293.16 91.024 293.505 91.024C293.85 91.024 294.135 91.136 294.359 91.36C294.592 91.5747 294.709 91.8453 294.709 92.172C294.709 92.4987 294.592 92.774 294.359 92.998C294.135 93.2127 293.85 93.32 293.505 93.32ZM294.471 94.244V102H292.511V94.244H294.471ZM295.903 98.122C295.903 97.3193 296.067 96.6193 296.393 96.022C296.72 95.4153 297.173 94.9487 297.751 94.622C298.33 94.286 298.993 94.118 299.739 94.118C300.701 94.118 301.494 94.3607 302.119 94.846C302.754 95.322 303.179 95.994 303.393 96.862H301.279C301.167 96.526 300.976 96.2647 300.705 96.078C300.444 95.882 300.117 95.784 299.725 95.784C299.165 95.784 298.722 95.9893 298.395 96.4C298.069 96.8013 297.905 97.3753 297.905 98.122C297.905 98.8593 298.069 99.4333 298.395 99.844C298.722 100.245 299.165 100.446 299.725 100.446C300.519 100.446 301.037 100.091 301.279 99.382H303.393C303.179 100.222 302.754 100.889 302.119 101.384C301.485 101.879 300.691 102.126 299.739 102.126C298.993 102.126 298.33 101.963 297.751 101.636C297.173 101.3 296.72 100.833 296.393 100.236C296.067 99.6293 295.903 98.9247 295.903 98.122ZM249.176 118.954C249.176 119.234 249.157 119.486 249.12 119.71H243.45C243.497 120.27 243.693 120.709 244.038 121.026C244.383 121.343 244.808 121.502 245.312 121.502C246.04 121.502 246.558 121.189 246.866 120.564H248.98C248.756 121.311 248.327 121.927 247.692 122.412C247.057 122.888 246.278 123.126 245.354 123.126C244.607 123.126 243.935 122.963 243.338 122.636C242.75 122.3 242.288 121.829 241.952 121.222C241.625 120.615 241.462 119.915 241.462 119.122C241.462 118.319 241.625 117.615 241.952 117.008C242.279 116.401 242.736 115.935 243.324 115.608C243.912 115.281 244.589 115.118 245.354 115.118C246.091 115.118 246.749 115.277 247.328 115.594C247.916 115.911 248.369 116.364 248.686 116.952C249.013 117.531 249.176 118.198 249.176 118.954ZM247.146 118.394C247.137 117.89 246.955 117.489 246.6 117.19C246.245 116.882 245.811 116.728 245.298 116.728C244.813 116.728 244.402 116.877 244.066 117.176C243.739 117.465 243.539 117.871 243.464 118.394H247.146ZM253.841 121.194L255.801 115.244H257.887L255.017 123H252.637L249.781 115.244H251.881L253.841 121.194ZM258.483 119.094C258.483 118.31 258.637 117.615 258.945 117.008C259.263 116.401 259.687 115.935 260.219 115.608C260.761 115.281 261.363 115.118 262.025 115.118C262.604 115.118 263.108 115.235 263.537 115.468C263.976 115.701 264.326 115.995 264.587 116.35V115.244H266.561V123H264.587V121.866C264.335 122.23 263.985 122.533 263.537 122.776C263.099 123.009 262.59 123.126 262.011 123.126C261.358 123.126 260.761 122.958 260.219 122.622C259.687 122.286 259.263 121.815 258.945 121.208C258.637 120.592 258.483 119.887 258.483 119.094ZM264.587 119.122C264.587 118.646 264.494 118.24 264.307 117.904C264.121 117.559 263.869 117.297 263.551 117.12C263.234 116.933 262.893 116.84 262.529 116.84C262.165 116.84 261.829 116.929 261.521 117.106C261.213 117.283 260.961 117.545 260.765 117.89C260.579 118.226 260.485 118.627 260.485 119.094C260.485 119.561 260.579 119.971 260.765 120.326C260.961 120.671 261.213 120.937 261.521 121.124C261.839 121.311 262.175 121.404 262.529 121.404C262.893 121.404 263.234 121.315 263.551 121.138C263.869 120.951 264.121 120.69 264.307 120.354C264.494 120.009 264.587 119.598 264.587 119.122ZM270.436 112.64V123H268.476V112.64H270.436ZM279.694 115.244V123H277.72V122.02C277.468 122.356 277.137 122.622 276.726 122.818C276.325 123.005 275.886 123.098 275.41 123.098C274.804 123.098 274.267 122.972 273.8 122.72C273.334 122.459 272.965 122.081 272.694 121.586C272.433 121.082 272.302 120.485 272.302 119.794V115.244H274.262V119.514C274.262 120.13 274.416 120.606 274.724 120.942C275.032 121.269 275.452 121.432 275.984 121.432C276.526 121.432 276.95 121.269 277.258 120.942C277.566 120.606 277.72 120.13 277.72 119.514V115.244H279.694ZM281.124 119.094C281.124 118.31 281.278 117.615 281.586 117.008C281.903 116.401 282.328 115.935 282.86 115.608C283.401 115.281 284.003 115.118 284.666 115.118C285.245 115.118 285.749 115.235 286.178 115.468C286.617 115.701 286.967 115.995 287.228 116.35V115.244H289.202V123H287.228V121.866C286.976 122.23 286.626 122.533 286.178 122.776C285.739 123.009 285.231 123.126 284.652 123.126C283.999 123.126 283.401 122.958 282.86 122.622C282.328 122.286 281.903 121.815 281.586 121.208C281.278 120.592 281.124 119.887 281.124 119.094ZM287.228 119.122C287.228 118.646 287.135 118.24 286.948 117.904C286.761 117.559 286.509 117.297 286.192 117.12C285.875 116.933 285.534 116.84 285.17 116.84C284.806 116.84 284.47 116.929 284.162 117.106C283.854 117.283 283.602 117.545 283.406 117.89C283.219 118.226 283.126 118.627 283.126 119.094C283.126 119.561 283.219 119.971 283.406 120.326C283.602 120.671 283.854 120.937 284.162 121.124C284.479 121.311 284.815 121.404 285.17 121.404C285.534 121.404 285.875 121.315 286.192 121.138C286.509 120.951 286.761 120.69 286.948 120.354C287.135 120.009 287.228 119.598 287.228 119.122ZM293.398 116.854V120.606C293.398 120.867 293.459 121.059 293.58 121.18C293.711 121.292 293.926 121.348 294.224 121.348H295.134V123H293.902C292.25 123 291.424 122.197 291.424 120.592V116.854H290.5V115.244H291.424V113.326H293.398V115.244H295.134V116.854H293.398ZM297.538 114.32C297.193 114.32 296.903 114.213 296.67 113.998C296.446 113.774 296.334 113.499 296.334 113.172C296.334 112.845 296.446 112.575 296.67 112.36C296.903 112.136 297.193 112.024 297.538 112.024C297.883 112.024 298.168 112.136 298.392 112.36C298.625 112.575 298.742 112.845 298.742 113.172C298.742 113.499 298.625 113.774 298.392 113.998C298.168 114.213 297.883 114.32 297.538 114.32ZM298.504 115.244V123H296.544V115.244H298.504ZM303.885 123.126C303.138 123.126 302.466 122.963 301.869 122.636C301.271 122.3 300.8 121.829 300.455 121.222C300.119 120.615 299.951 119.915 299.951 119.122C299.951 118.329 300.123 117.629 300.469 117.022C300.823 116.415 301.304 115.949 301.911 115.622C302.517 115.286 303.194 115.118 303.941 115.118C304.687 115.118 305.364 115.286 305.971 115.622C306.577 115.949 307.053 116.415 307.399 117.022C307.753 117.629 307.931 118.329 307.931 119.122C307.931 119.915 307.749 120.615 307.385 121.222C307.03 121.829 306.545 122.3 305.929 122.636C305.322 122.963 304.641 123.126 303.885 123.126ZM303.885 121.418C304.239 121.418 304.571 121.334 304.879 121.166C305.196 120.989 305.448 120.727 305.635 120.382C305.821 120.037 305.915 119.617 305.915 119.122C305.915 118.385 305.719 117.82 305.327 117.428C304.944 117.027 304.473 116.826 303.913 116.826C303.353 116.826 302.881 117.027 302.499 117.428C302.125 117.82 301.939 118.385 301.939 119.122C301.939 119.859 302.121 120.429 302.485 120.83C302.858 121.222 303.325 121.418 303.885 121.418ZM313.666 115.132C314.59 115.132 315.337 115.426 315.906 116.014C316.476 116.593 316.76 117.405 316.76 118.45V123H314.8V118.716C314.8 118.1 314.646 117.629 314.338 117.302C314.03 116.966 313.61 116.798 313.078 116.798C312.537 116.798 312.108 116.966 311.79 117.302C311.482 117.629 311.328 118.1 311.328 118.716V123H309.368V115.244H311.328V116.21C311.59 115.874 311.921 115.613 312.322 115.426C312.733 115.23 313.181 115.132 313.666 115.132Z" fill="#4B5563"/>
<path d="M361.006 102L358.85 98.192H357.926V102H355.966V92.228H359.634C360.39 92.228 361.034 92.3633 361.566 92.634C362.098 92.8953 362.495 93.2547 362.756 93.712C363.027 94.16 363.162 94.664 363.162 95.224C363.162 95.868 362.975 96.4513 362.602 96.974C362.229 97.4873 361.673 97.842 360.936 98.038L363.274 102H361.006ZM357.926 96.722H359.564C360.096 96.722 360.493 96.596 360.754 96.344C361.015 96.0827 361.146 95.7233 361.146 95.266C361.146 94.818 361.015 94.4727 360.754 94.23C360.493 93.978 360.096 93.852 359.564 93.852H357.926V96.722ZM372.145 97.954C372.145 98.234 372.126 98.486 372.089 98.71H366.419C366.465 99.27 366.661 99.7087 367.007 100.026C367.352 100.343 367.777 100.502 368.281 100.502C369.009 100.502 369.527 100.189 369.835 99.564H371.949C371.725 100.311 371.295 100.927 370.661 101.412C370.026 101.888 369.247 102.126 368.323 102.126C367.576 102.126 366.904 101.963 366.307 101.636C365.719 101.3 365.257 100.829 364.921 100.222C364.594 99.6153 364.431 98.9153 364.431 98.122C364.431 97.3193 364.594 96.6147 364.921 96.008C365.247 95.4013 365.705 94.9347 366.293 94.608C366.881 94.2813 367.557 94.118 368.323 94.118C369.06 94.118 369.718 94.2767 370.297 94.594C370.885 94.9113 371.337 95.364 371.655 95.952C371.981 96.5307 372.145 97.198 372.145 97.954ZM370.115 97.394C370.105 96.89 369.923 96.4887 369.569 96.19C369.214 95.882 368.78 95.728 368.267 95.728C367.781 95.728 367.371 95.8773 367.035 96.176C366.708 96.4653 366.507 96.8713 366.433 97.394H370.115ZM376.543 102.126C375.909 102.126 375.339 102.014 374.835 101.79C374.331 101.557 373.93 101.244 373.631 100.852C373.342 100.46 373.183 100.026 373.155 99.55H375.129C375.167 99.8487 375.311 100.096 375.563 100.292C375.825 100.488 376.147 100.586 376.529 100.586C376.903 100.586 377.192 100.511 377.397 100.362C377.612 100.213 377.719 100.021 377.719 99.788C377.719 99.536 377.589 99.3493 377.327 99.228C377.075 99.0973 376.669 98.9573 376.109 98.808C375.531 98.668 375.055 98.5233 374.681 98.374C374.317 98.2247 374 97.996 373.729 97.688C373.468 97.38 373.337 96.9647 373.337 96.442C373.337 96.0127 373.459 95.6207 373.701 95.266C373.953 94.9113 374.308 94.6313 374.765 94.426C375.232 94.2207 375.778 94.118 376.403 94.118C377.327 94.118 378.065 94.3513 378.615 94.818C379.166 95.2753 379.469 95.896 379.525 96.68H377.649C377.621 96.372 377.491 96.1293 377.257 95.952C377.033 95.7653 376.73 95.672 376.347 95.672C375.993 95.672 375.717 95.7373 375.521 95.868C375.335 95.9987 375.241 96.1807 375.241 96.414C375.241 96.6753 375.372 96.876 375.633 97.016C375.895 97.1467 376.301 97.282 376.851 97.422C377.411 97.562 377.873 97.7067 378.237 97.856C378.601 98.0053 378.914 98.2387 379.175 98.556C379.446 98.864 379.586 99.2747 379.595 99.788C379.595 100.236 379.469 100.637 379.217 100.992C378.975 101.347 378.62 101.627 378.153 101.832C377.696 102.028 377.159 102.126 376.543 102.126ZM388.414 97.954C388.414 98.234 388.396 98.486 388.358 98.71H382.688C382.735 99.27 382.931 99.7087 383.276 100.026C383.622 100.343 384.046 100.502 384.55 100.502C385.278 100.502 385.796 100.189 386.104 99.564H388.218C387.994 100.311 387.565 100.927 386.93 101.412C386.296 101.888 385.516 102.126 384.592 102.126C383.846 102.126 383.174 101.963 382.576 101.636C381.988 101.3 381.526 100.829 381.19 100.222C380.864 99.6153 380.7 98.9153 380.7 98.122C380.7 97.3193 380.864 96.6147 381.19 96.008C381.517 95.4013 381.974 94.9347 382.562 94.608C383.15 94.2813 383.827 94.118 384.592 94.118C385.33 94.118 385.988 94.2767 386.566 94.594C387.154 94.9113 387.607 95.364 387.924 95.952C388.251 96.5307 388.414 97.198 388.414 97.954ZM386.384 97.394C386.375 96.89 386.193 96.4887 385.838 96.19C385.484 95.882 385.05 95.728 384.536 95.728C384.051 95.728 383.64 95.8773 383.304 96.176C382.978 96.4653 382.777 96.8713 382.702 97.394H386.384ZM389.341 98.094C389.341 97.31 389.495 96.6147 389.803 96.008C390.12 95.4013 390.545 94.9347 391.077 94.608C391.618 94.2813 392.22 94.118 392.883 94.118C393.462 94.118 393.966 94.2347 394.395 94.468C394.834 94.7013 395.184 94.9953 395.445 95.35V94.244H397.419V102H395.445V100.866C395.193 101.23 394.843 101.533 394.395 101.776C393.956 102.009 393.448 102.126 392.869 102.126C392.216 102.126 391.618 101.958 391.077 101.622C390.545 101.286 390.12 100.815 389.803 100.208C389.495 99.592 389.341 98.8873 389.341 98.094ZM395.445 98.122C395.445 97.646 395.352 97.24 395.165 96.904C394.978 96.5587 394.726 96.2973 394.409 96.12C394.092 95.9333 393.751 95.84 393.387 95.84C393.023 95.84 392.687 95.9287 392.379 96.106C392.071 96.2833 391.819 96.5447 391.623 96.89C391.436 97.226 391.343 97.6273 391.343 98.094C391.343 98.5607 391.436 98.9713 391.623 99.326C391.819 99.6713 392.071 99.9373 392.379 100.124C392.696 100.311 393.032 100.404 393.387 100.404C393.751 100.404 394.092 100.315 394.409 100.138C394.726 99.9513 394.978 99.69 395.165 99.354C395.352 99.0087 395.445 98.598 395.445 98.122ZM401.293 95.448C401.545 95.0373 401.872 94.7153 402.273 94.482C402.684 94.2487 403.151 94.132 403.673 94.132V96.19H403.155C402.539 96.19 402.073 96.3347 401.755 96.624C401.447 96.9133 401.293 97.4173 401.293 98.136V102H399.333V94.244H401.293V95.448ZM404.489 98.122C404.489 97.3193 404.653 96.6193 404.979 96.022C405.306 95.4153 405.759 94.9487 406.337 94.622C406.916 94.286 407.579 94.118 408.325 94.118C409.287 94.118 410.08 94.3607 410.705 94.846C411.34 95.322 411.765 95.994 411.979 96.862H409.865C409.753 96.526 409.562 96.2647 409.291 96.078C409.03 95.882 408.703 95.784 408.311 95.784C407.751 95.784 407.308 95.9893 406.981 96.4C406.655 96.8013 406.491 97.3753 406.491 98.122C406.491 98.8593 406.655 99.4333 406.981 99.844C407.308 100.245 407.751 100.446 408.311 100.446C409.105 100.446 409.623 100.091 409.865 99.382H411.979C411.765 100.222 411.34 100.889 410.705 101.384C410.071 101.879 409.277 102.126 408.325 102.126C407.579 102.126 406.916 101.963 406.337 101.636C405.759 101.3 405.306 100.833 404.979 100.236C404.653 99.6293 404.489 98.9247 404.489 98.122ZM417.783 94.132C418.371 94.132 418.894 94.2627 419.351 94.524C419.809 94.776 420.163 95.154 420.415 95.658C420.677 96.1527 420.807 96.75 420.807 97.45V102H418.847V97.716C418.847 97.1 418.693 96.6287 418.385 96.302C418.077 95.966 417.657 95.798 417.125 95.798C416.584 95.798 416.155 95.966 415.837 96.302C415.529 96.6287 415.375 97.1 415.375 97.716V102H413.415V91.64H415.375V95.21C415.627 94.874 415.963 94.6127 416.383 94.426C416.803 94.23 417.27 94.132 417.783 94.132Z" fill="#4B5563"/>
<path d="M473.382 92.228C474.409 92.228 475.309 92.4287 476.084 92.83C476.868 93.2313 477.47 93.8053 477.89 94.552C478.319 95.2893 478.534 96.148 478.534 97.128C478.534 98.108 478.319 98.9667 477.89 99.704C477.47 100.432 476.868 100.997 476.084 101.398C475.309 101.799 474.409 102 473.382 102H469.966V92.228H473.382ZM473.312 100.334C474.339 100.334 475.132 100.054 475.692 99.494C476.252 98.934 476.532 98.1453 476.532 97.128C476.532 96.1107 476.252 95.3173 475.692 94.748C475.132 94.1693 474.339 93.88 473.312 93.88H471.926V100.334H473.312ZM487.211 97.954C487.211 98.234 487.192 98.486 487.155 98.71H481.485C481.532 99.27 481.728 99.7087 482.073 100.026C482.418 100.343 482.843 100.502 483.347 100.502C484.075 100.502 484.593 100.189 484.901 99.564H487.015C486.791 100.311 486.362 100.927 485.727 101.412C485.092 101.888 484.313 102.126 483.389 102.126C482.642 102.126 481.97 101.963 481.373 101.636C480.785 101.3 480.323 100.829 479.987 100.222C479.66 99.6153 479.497 98.9153 479.497 98.122C479.497 97.3193 479.66 96.6147 479.987 96.008C480.314 95.4013 480.771 94.9347 481.359 94.608C481.947 94.2813 482.624 94.118 483.389 94.118C484.126 94.118 484.784 94.2767 485.363 94.594C485.951 94.9113 486.404 95.364 486.721 95.952C487.048 96.5307 487.211 97.198 487.211 97.954ZM485.181 97.394C485.172 96.89 484.99 96.4887 484.635 96.19C484.28 95.882 483.846 95.728 483.333 95.728C482.848 95.728 482.437 95.8773 482.101 96.176C481.774 96.4653 481.574 96.8713 481.499 97.394H485.181ZM491.61 102.126C490.975 102.126 490.406 102.014 489.902 101.79C489.398 101.557 488.996 101.244 488.698 100.852C488.408 100.46 488.25 100.026 488.222 99.55H490.196C490.233 99.8487 490.378 100.096 490.63 100.292C490.891 100.488 491.213 100.586 491.596 100.586C491.969 100.586 492.258 100.511 492.464 100.362C492.678 100.213 492.786 100.021 492.786 99.788C492.786 99.536 492.655 99.3493 492.394 99.228C492.142 99.0973 491.736 98.9573 491.176 98.808C490.597 98.668 490.121 98.5233 489.748 98.374C489.384 98.2247 489.066 97.996 488.796 97.688C488.534 97.38 488.404 96.9647 488.404 96.442C488.404 96.0127 488.525 95.6207 488.768 95.266C489.02 94.9113 489.374 94.6313 489.832 94.426C490.298 94.2207 490.844 94.118 491.47 94.118C492.394 94.118 493.131 94.3513 493.682 94.818C494.232 95.2753 494.536 95.896 494.592 96.68H492.716C492.688 96.372 492.557 96.1293 492.324 95.952C492.1 95.7653 491.796 95.672 491.414 95.672C491.059 95.672 490.784 95.7373 490.588 95.868C490.401 95.9987 490.308 96.1807 490.308 96.414C490.308 96.6753 490.438 96.876 490.7 97.016C490.961 97.1467 491.367 97.282 491.918 97.422C492.478 97.562 492.94 97.7067 493.304 97.856C493.668 98.0053 493.98 98.2387 494.242 98.556C494.512 98.864 494.652 99.2747 494.662 99.788C494.662 100.236 494.536 100.637 494.284 100.992C494.041 101.347 493.686 101.627 493.22 101.832C492.762 102.028 492.226 102.126 491.61 102.126ZM497.265 93.32C496.919 93.32 496.63 93.2127 496.397 92.998C496.173 92.774 496.061 92.4987 496.061 92.172C496.061 91.8453 496.173 91.5747 496.397 91.36C496.63 91.136 496.919 91.024 497.265 91.024C497.61 91.024 497.895 91.136 498.119 91.36C498.352 91.5747 498.469 91.8453 498.469 92.172C498.469 92.4987 498.352 92.774 498.119 92.998C497.895 93.2127 497.61 93.32 497.265 93.32ZM498.231 94.244V102H496.271V94.244H498.231ZM503.205 94.118C503.784 94.118 504.293 94.2347 504.731 94.468C505.17 94.692 505.515 94.986 505.767 95.35V94.244H507.741V102.056C507.741 102.775 507.597 103.414 507.307 103.974C507.018 104.543 506.584 104.991 506.005 105.318C505.427 105.654 504.727 105.822 503.905 105.822C502.804 105.822 501.899 105.565 501.189 105.052C500.489 104.539 500.093 103.839 499.999 102.952H501.945C502.048 103.307 502.267 103.587 502.603 103.792C502.949 104.007 503.364 104.114 503.849 104.114C504.419 104.114 504.881 103.941 505.235 103.596C505.59 103.26 505.767 102.747 505.767 102.056V100.852C505.515 101.216 505.165 101.519 504.717 101.762C504.279 102.005 503.775 102.126 503.205 102.126C502.552 102.126 501.955 101.958 501.413 101.622C500.872 101.286 500.443 100.815 500.125 100.208C499.817 99.592 499.663 98.8873 499.663 98.094C499.663 97.31 499.817 96.6147 500.125 96.008C500.443 95.4013 500.867 94.9347 501.399 94.608C501.941 94.2813 502.543 94.118 503.205 94.118ZM505.767 98.122C505.767 97.646 505.674 97.24 505.487 96.904C505.301 96.5587 505.049 96.2973 504.731 96.12C504.414 95.9333 504.073 95.84 503.709 95.84C503.345 95.84 503.009 95.9287 502.701 96.106C502.393 96.2833 502.141 96.5447 501.945 96.89C501.759 97.226 501.665 97.6273 501.665 98.094C501.665 98.5607 501.759 98.9713 501.945 99.326C502.141 99.6713 502.393 99.9373 502.701 100.124C503.019 100.311 503.355 100.404 503.709 100.404C504.073 100.404 504.414 100.315 504.731 100.138C505.049 99.9513 505.301 99.69 505.487 99.354C505.674 99.0087 505.767 98.598 505.767 98.122ZM513.953 94.132C514.877 94.132 515.624 94.426 516.193 95.014C516.763 95.5927 517.047 96.4047 517.047 97.45V102H515.087V97.716C515.087 97.1 514.933 96.6287 514.625 96.302C514.317 95.966 513.897 95.798 513.365 95.798C512.824 95.798 512.395 95.966 512.077 96.302C511.769 96.6287 511.615 97.1 511.615 97.716V102H509.655V94.244H511.615V95.21C511.877 94.874 512.208 94.6127 512.609 94.426C513.02 94.23 513.468 94.132 513.953 94.132ZM479.598 115.132C480.55 115.132 481.315 115.426 481.894 116.014C482.482 116.593 482.776 117.405 482.776 118.45V123H480.816V118.716C480.816 118.109 480.662 117.647 480.354 117.33C480.046 117.003 479.626 116.84 479.094 116.84C478.562 116.84 478.137 117.003 477.82 117.33C477.512 117.647 477.358 118.109 477.358 118.716V123H475.398V118.716C475.398 118.109 475.244 117.647 474.936 117.33C474.628 117.003 474.208 116.84 473.676 116.84C473.135 116.84 472.705 117.003 472.388 117.33C472.08 117.647 471.926 118.109 471.926 118.716V123H469.966V115.244H471.926V116.182C472.178 115.855 472.5 115.599 472.892 115.412C473.293 115.225 473.732 115.132 474.208 115.132C474.815 115.132 475.356 115.263 475.832 115.524C476.308 115.776 476.677 116.14 476.938 116.616C477.19 116.168 477.554 115.809 478.03 115.538C478.515 115.267 479.038 115.132 479.598 115.132ZM488.08 123.126C487.333 123.126 486.661 122.963 486.064 122.636C485.467 122.3 484.995 121.829 484.65 121.222C484.314 120.615 484.146 119.915 484.146 119.122C484.146 118.329 484.319 117.629 484.664 117.022C485.019 116.415 485.499 115.949 486.106 115.622C486.713 115.286 487.389 115.118 488.136 115.118C488.883 115.118 489.559 115.286 490.166 115.622C490.773 115.949 491.249 116.415 491.594 117.022C491.949 117.629 492.126 118.329 492.126 119.122C492.126 119.915 491.944 120.615 491.58 121.222C491.225 121.829 490.74 122.3 490.124 122.636C489.517 122.963 488.836 123.126 488.08 123.126ZM488.08 121.418C488.435 121.418 488.766 121.334 489.074 121.166C489.391 120.989 489.643 120.727 489.83 120.382C490.017 120.037 490.11 119.617 490.11 119.122C490.11 118.385 489.914 117.82 489.522 117.428C489.139 117.027 488.668 116.826 488.108 116.826C487.548 116.826 487.077 117.027 486.694 117.428C486.321 117.82 486.134 118.385 486.134 119.122C486.134 119.859 486.316 120.429 486.68 120.83C487.053 121.222 487.52 121.418 488.08 121.418ZM493.06 119.122C493.06 118.319 493.223 117.619 493.55 117.022C493.876 116.415 494.329 115.949 494.908 115.622C495.486 115.286 496.149 115.118 496.896 115.118C497.857 115.118 498.65 115.361 499.276 115.846C499.91 116.322 500.335 116.994 500.55 117.862H498.436C498.324 117.526 498.132 117.265 497.862 117.078C497.6 116.882 497.274 116.784 496.882 116.784C496.322 116.784 495.878 116.989 495.552 117.4C495.225 117.801 495.062 118.375 495.062 119.122C495.062 119.859 495.225 120.433 495.552 120.844C495.878 121.245 496.322 121.446 496.882 121.446C497.675 121.446 498.193 121.091 498.436 120.382H500.55C500.335 121.222 499.91 121.889 499.276 122.384C498.641 122.879 497.848 123.126 496.896 123.126C496.149 123.126 495.486 122.963 494.908 122.636C494.329 122.3 493.876 121.833 493.55 121.236C493.223 120.629 493.06 119.925 493.06 119.122ZM506.578 123L503.946 119.696V123H501.986V112.64H503.946V118.534L506.55 115.244H509.098L505.682 119.136L509.126 123H506.578ZM517.483 115.244V123H515.509V122.02C515.257 122.356 514.926 122.622 514.515 122.818C514.114 123.005 513.675 123.098 513.199 123.098C512.593 123.098 512.056 122.972 511.589 122.72C511.123 122.459 510.754 122.081 510.483 121.586C510.222 121.082 510.091 120.485 510.091 119.794V115.244H512.051V119.514C512.051 120.13 512.205 120.606 512.513 120.942C512.821 121.269 513.241 121.432 513.773 121.432C514.315 121.432 514.739 121.269 515.047 120.942C515.355 120.606 515.509 120.13 515.509 119.514V115.244H517.483ZM521.377 116.364C521.629 116.009 521.975 115.715 522.413 115.482C522.861 115.239 523.37 115.118 523.939 115.118C524.602 115.118 525.199 115.281 525.731 115.608C526.273 115.935 526.697 116.401 527.005 117.008C527.323 117.605 527.481 118.301 527.481 119.094C527.481 119.887 527.323 120.592 527.005 121.208C526.697 121.815 526.273 122.286 525.731 122.622C525.199 122.958 524.602 123.126 523.939 123.126C523.37 123.126 522.866 123.009 522.427 122.776C521.998 122.543 521.648 122.249 521.377 121.894V126.696H519.417V115.244H521.377V116.364ZM525.479 119.094C525.479 118.627 525.381 118.226 525.185 117.89C524.999 117.545 524.747 117.283 524.429 117.106C524.121 116.929 523.785 116.84 523.421 116.84C523.067 116.84 522.731 116.933 522.413 117.12C522.105 117.297 521.853 117.559 521.657 117.904C521.471 118.249 521.377 118.655 521.377 119.122C521.377 119.589 521.471 119.995 521.657 120.34C521.853 120.685 522.105 120.951 522.413 121.138C522.731 121.315 523.067 121.404 523.421 121.404C523.785 121.404 524.121 121.311 524.429 121.124C524.747 120.937 524.999 120.671 525.185 120.326C525.381 119.981 525.479 119.57 525.479 119.094ZM531.873 123.126C531.239 123.126 530.669 123.014 530.165 122.79C529.661 122.557 529.26 122.244 528.961 121.852C528.672 121.46 528.513 121.026 528.485 120.55H530.459C530.497 120.849 530.641 121.096 530.893 121.292C531.155 121.488 531.477 121.586 531.859 121.586C532.233 121.586 532.522 121.511 532.727 121.362C532.942 121.213 533.049 121.021 533.049 120.788C533.049 120.536 532.919 120.349 532.657 120.228C532.405 120.097 531.999 119.957 531.439 119.808C530.861 119.668 530.385 119.523 530.011 119.374C529.647 119.225 529.33 118.996 529.059 118.688C528.798 118.38 528.667 117.965 528.667 117.442C528.667 117.013 528.789 116.621 529.031 116.266C529.283 115.911 529.638 115.631 530.095 115.426C530.562 115.221 531.108 115.118 531.733 115.118C532.657 115.118 533.395 115.351 533.945 115.818C534.496 116.275 534.799 116.896 534.855 117.68H532.979C532.951 117.372 532.821 117.129 532.587 116.952C532.363 116.765 532.06 116.672 531.677 116.672C531.323 116.672 531.047 116.737 530.851 116.868C530.665 116.999 530.571 117.181 530.571 117.414C530.571 117.675 530.702 117.876 530.963 118.016C531.225 118.147 531.631 118.282 532.181 118.422C532.741 118.562 533.203 118.707 533.567 118.856C533.931 119.005 534.244 119.239 534.505 119.556C534.776 119.864 534.916 120.275 534.925 120.788C534.925 121.236 534.799 121.637 534.547 121.992C534.305 122.347 533.95 122.627 533.483 122.832C533.026 123.028 532.489 123.126 531.873 123.126Z" fill="#4B5563"/>
<path d="M595.51 96.988C596.061 97.0907 596.513 97.366 596.868 97.814C597.223 98.262 597.4 98.7753 597.4 99.354C597.4 99.8767 597.269 100.339 597.008 100.74C596.756 101.132 596.387 101.44 595.902 101.664C595.417 101.888 594.843 102 594.18 102H589.966V92.228H593.998C594.661 92.228 595.23 92.3353 595.706 92.55C596.191 92.7647 596.555 93.0633 596.798 93.446C597.05 93.8287 597.176 94.2627 597.176 94.748C597.176 95.3173 597.022 95.7933 596.714 96.176C596.415 96.5587 596.014 96.8293 595.51 96.988ZM591.926 96.26H593.718C594.185 96.26 594.544 96.1573 594.796 95.952C595.048 95.7373 595.174 95.434 595.174 95.042C595.174 94.65 595.048 94.3467 594.796 94.132C594.544 93.9173 594.185 93.81 593.718 93.81H591.926V96.26ZM593.9 100.404C594.376 100.404 594.745 100.292 595.006 100.068C595.277 99.844 595.412 99.5267 595.412 99.116C595.412 98.696 595.272 98.3693 594.992 98.136C594.712 97.8933 594.334 97.772 593.858 97.772H591.926V100.404H593.9ZM606.284 94.244V102H604.31V101.02C604.058 101.356 603.727 101.622 603.316 101.818C602.915 102.005 602.476 102.098 602 102.098C601.393 102.098 600.857 101.972 600.39 101.72C599.923 101.459 599.555 101.081 599.284 100.586C599.023 100.082 598.892 99.4847 598.892 98.794V94.244H600.852V98.514C600.852 99.13 601.006 99.606 601.314 99.942C601.622 100.269 602.042 100.432 602.574 100.432C603.115 100.432 603.54 100.269 603.848 99.942C604.156 99.606 604.31 99.13 604.31 98.514V94.244H606.284ZM609.212 93.32C608.867 93.32 608.577 93.2127 608.344 92.998C608.12 92.774 608.008 92.4987 608.008 92.172C608.008 91.8453 608.12 91.5747 608.344 91.36C608.577 91.136 608.867 91.024 609.212 91.024C609.557 91.024 609.842 91.136 610.066 91.36C610.299 91.5747 610.416 91.8453 610.416 92.172C610.416 92.4987 610.299 92.774 610.066 92.998C609.842 93.2127 609.557 93.32 609.212 93.32ZM610.178 94.244V102H608.218V94.244H610.178ZM614.074 91.64V102H612.114V91.64H614.074ZM615.507 98.094C615.507 97.31 615.661 96.6147 615.969 96.008C616.286 95.4013 616.716 94.9347 617.257 94.608C617.798 94.2813 618.4 94.118 619.063 94.118C619.567 94.118 620.048 94.23 620.505 94.454C620.962 94.6687 621.326 94.958 621.597 95.322V91.64H623.585V102H621.597V100.852C621.354 101.235 621.014 101.543 620.575 101.776C620.136 102.009 619.628 102.126 619.049 102.126C618.396 102.126 617.798 101.958 617.257 101.622C616.716 101.286 616.286 100.815 615.969 100.208C615.661 99.592 615.507 98.8873 615.507 98.094ZM621.611 98.122C621.611 97.646 621.518 97.24 621.331 96.904C621.144 96.5587 620.892 96.2973 620.575 96.12C620.258 95.9333 619.917 95.84 619.553 95.84C619.189 95.84 618.853 95.9287 618.545 96.106C618.237 96.2833 617.985 96.5447 617.789 96.89C617.602 97.226 617.509 97.6273 617.509 98.094C617.509 98.5607 617.602 98.9713 617.789 99.326C617.985 99.6713 618.237 99.9373 618.545 100.124C618.862 100.311 619.198 100.404 619.553 100.404C619.917 100.404 620.258 100.315 620.575 100.138C620.892 99.9513 621.144 99.69 621.331 99.354C621.518 99.0087 621.611 98.598 621.611 98.122Z" fill="#4B5563"/>
<path d="M706.744 92.228L703.16 102H700.78L697.196 92.228H699.296L701.984 99.998L704.658 92.228H706.744ZM707.415 98.094C707.415 97.31 707.569 96.6147 707.877 96.008C708.194 95.4013 708.619 94.9347 709.151 94.608C709.692 94.2813 710.294 94.118 710.957 94.118C711.536 94.118 712.04 94.2347 712.469 94.468C712.908 94.7013 713.258 94.9953 713.519 95.35V94.244H715.493V102H713.519V100.866C713.267 101.23 712.917 101.533 712.469 101.776C712.03 102.009 711.522 102.126 710.943 102.126C710.29 102.126 709.692 101.958 709.151 101.622C708.619 101.286 708.194 100.815 707.877 100.208C707.569 99.592 707.415 98.8873 707.415 98.094ZM713.519 98.122C713.519 97.646 713.426 97.24 713.239 96.904C713.052 96.5587 712.8 96.2973 712.483 96.12C712.166 95.9333 711.825 95.84 711.461 95.84C711.097 95.84 710.761 95.9287 710.453 96.106C710.145 96.2833 709.893 96.5447 709.697 96.89C709.51 97.226 709.417 97.6273 709.417 98.094C709.417 98.5607 709.51 98.9713 709.697 99.326C709.893 99.6713 710.145 99.9373 710.453 100.124C710.77 100.311 711.106 100.404 711.461 100.404C711.825 100.404 712.166 100.315 712.483 100.138C712.8 99.9513 713.052 99.69 713.239 99.354C713.426 99.0087 713.519 98.598 713.519 98.122ZM719.367 91.64V102H717.407V91.64H719.367ZM722.298 93.32C721.953 93.32 721.663 93.2127 721.43 92.998C721.206 92.774 721.094 92.4987 721.094 92.172C721.094 91.8453 721.206 91.5747 721.43 91.36C721.663 91.136 721.953 91.024 722.298 91.024C722.643 91.024 722.928 91.136 723.152 91.36C723.385 91.5747 723.502 91.8453 723.502 92.172C723.502 92.4987 723.385 92.774 723.152 92.998C722.928 93.2127 722.643 93.32 722.298 93.32ZM723.264 94.244V102H721.304V94.244H723.264ZM724.696 98.094C724.696 97.31 724.85 96.6147 725.158 96.008C725.476 95.4013 725.905 94.9347 726.446 94.608C726.988 94.2813 727.59 94.118 728.252 94.118C728.756 94.118 729.237 94.23 729.694 94.454C730.152 94.6687 730.516 94.958 730.786 95.322V91.64H732.774V102H730.786V100.852C730.544 101.235 730.203 101.543 729.764 101.776C729.326 102.009 728.817 102.126 728.238 102.126C727.585 102.126 726.988 101.958 726.446 101.622C725.905 101.286 725.476 100.815 725.158 100.208C724.85 99.592 724.696 98.8873 724.696 98.094ZM730.8 98.122C730.8 97.646 730.707 97.24 730.52 96.904C730.334 96.5587 730.082 96.2973 729.764 96.12C729.447 95.9333 729.106 95.84 728.742 95.84C728.378 95.84 728.042 95.9287 727.734 96.106C727.426 96.2833 727.174 96.5447 726.978 96.89C726.792 97.226 726.698 97.6273 726.698 98.094C726.698 98.5607 726.792 98.9713 726.978 99.326C727.174 99.6713 727.426 99.9373 727.734 100.124C728.052 100.311 728.388 100.404 728.742 100.404C729.106 100.404 729.447 100.315 729.764 100.138C730.082 99.9513 730.334 99.69 730.52 99.354C730.707 99.0087 730.8 98.598 730.8 98.122ZM734.185 98.094C734.185 97.31 734.339 96.6147 734.647 96.008C734.964 95.4013 735.389 94.9347 735.921 94.608C736.462 94.2813 737.064 94.118 737.727 94.118C738.305 94.118 738.809 94.2347 739.239 94.468C739.677 94.7013 740.027 94.9953 740.289 95.35V94.244H742.263V102H740.289V100.866C740.037 101.23 739.687 101.533 739.239 101.776C738.8 102.009 738.291 102.126 737.713 102.126C737.059 102.126 736.462 101.958 735.921 101.622C735.389 101.286 734.964 100.815 734.647 100.208C734.339 99.592 734.185 98.8873 734.185 98.094ZM740.289 98.122C740.289 97.646 740.195 97.24 740.009 96.904C739.822 96.5587 739.57 96.2973 739.253 96.12C738.935 95.9333 738.595 95.84 738.231 95.84C737.867 95.84 737.531 95.9287 737.223 96.106C736.915 96.2833 736.663 96.5447 736.467 96.89C736.28 97.226 736.187 97.6273 736.187 98.094C736.187 98.5607 736.28 98.9713 736.467 99.326C736.663 99.6713 736.915 99.9373 737.223 100.124C737.54 100.311 737.876 100.404 738.231 100.404C738.595 100.404 738.935 100.315 739.253 100.138C739.57 99.9513 739.822 99.69 740.009 99.354C740.195 99.0087 740.289 98.598 740.289 98.122ZM746.459 95.854V99.606C746.459 99.8673 746.52 100.059 746.641 100.18C746.772 100.292 746.986 100.348 747.285 100.348H748.195V102H746.963C745.311 102 744.485 101.197 744.485 99.592V95.854H743.561V94.244H744.485V92.326H746.459V94.244H748.195V95.854H746.459ZM756.815 97.954C756.815 98.234 756.796 98.486 756.759 98.71H751.089C751.135 99.27 751.331 99.7087 751.677 100.026C752.022 100.343 752.447 100.502 752.951 100.502C753.679 100.502 754.197 100.189 754.505 99.564H756.619C756.395 100.311 755.965 100.927 755.331 101.412C754.696 101.888 753.917 102.126 752.993 102.126C752.246 102.126 751.574 101.963 750.977 101.636C750.389 101.3 749.927 100.829 749.591 100.222C749.264 99.6153 749.101 98.9153 749.101 98.122C749.101 97.3193 749.264 96.6147 749.591 96.008C749.917 95.4013 750.375 94.9347 750.963 94.608C751.551 94.2813 752.227 94.118 752.993 94.118C753.73 94.118 754.388 94.2767 754.967 94.594C755.555 94.9113 756.007 95.364 756.325 95.952C756.651 96.5307 756.815 97.198 756.815 97.954ZM754.785 97.394C754.775 96.89 754.593 96.4887 754.239 96.19C753.884 95.882 753.45 95.728 752.937 95.728C752.451 95.728 752.041 95.8773 751.705 96.176C751.378 96.4653 751.177 96.8713 751.103 97.394H754.785Z" fill="#4B5563"/>
<rect y="87" width="4" height="42" fill="#D9D9D9"/>
<rect x="115" y="87" width="4" height="42" fill="#D9D9D9"/>
<rect x="229" y="87" width="4" height="42" fill="#D9D9D9"/>
<rect x="343" y="87" width="4" height="21" fill="#D9D9D9"/>
<rect x="457" y="87" width="4" height="42" fill="#D9D9D9"/>
<rect x="571" y="87" width="4" height="21" fill="#D9D9D9"/>
<rect x="685" y="87" width="4" height="21" fill="#D9D9D9"/>
</svg>
